#!OML:ASF F:\VICON\USERDATA\INSTALL\rory3\rory3.ASF
:FULLY-SPECIFIED
:DEGREES
142
root 1.26618 18.1734 -4.63864 -3.2508 -1.43182 -0.0143016
lowerback 11.1658 0.318527 -0.862835
upperback 0.143544 0.381413 1.10328
thorax -6.13339 0.229364 1.58332
lowerneck -16.2846 -3.45295 -1.47777
upperneck 21.6814 -4.53308 0.395736
head 9.58817 -2.18606 -0.204803
rclavicle 6.60959e-015 -1.03368e-014
rhumerus -29.7006 -20.9921 -77.7828
rradius 26.9578
rwrist 4.04494
rhand -17.6779 23.446
rfingers 7.12502
rthumb 8.58122 -6.3596
lclavicle 6.60959e-015 -1.03368e-014
lhumerus -32.3489 4.39765 83.235
lradius 24.5116
lwrist 9.41161
lhand -27.1992 22.0261
lfingers 7.12502
lthumb -0.612515 52.0049
rfemur -20.2023 -1.44775 21.1549
rtibia 72.3394
rfoot -3.61681 -5.26605
rtoes 3.84266
lfemur -7.3187 -0.787019 -24.4393
ltibia 26.3817
lfoot -12.2977 1.43785
ltoes -0.700783
143
root 1.27077 18.1463 -4.47726 -3.12269 -1.14386 0.00915045
lowerback 11.0555 0.163642 -0.991453
upperback 0.156613 0.164615 1.1874
thorax -6.05073 0.127379 1.77931
lowerneck -16.4969 -3.4358 -1.50827
upperneck 21.7732 -4.50104 0.402215
head 9.66077 -2.1711 -0.198504
rclavicle -6.64686e-015 -7.15625e-015
rhumerus -29.95 -21.0399 -77.6512
rradius 26.9699
rwrist 3.88849
rhand -17.8627 23.0797
rfingers 7.12502
rthumb 8.40281 -6.73317
lclavicle -6.64686e-015 -7.15625e-015
lhumerus -31.8167 4.06729 83.2584
lradius 24.6143
lwrist 9.4779
lhand -27.2084 21.2257
lfingers 7.12502
lthumb -0.621324 51.2045
rfemur -21.5098 -1.73848 21.1855
rtibia 72.1341
rfoot -4.9922 -5.14145
rtoes 4.54987
lfemur -7.03341 -0.661983 -24.5137
ltibia 26.7882
lfoot -13.0251 1.42771
ltoes -0.568271
144
root 1.27579 18.1304 -4.30714 -2.98337 -0.918625 0.0532753
lowerback 10.9049 -0.0190576 -1.13819
upperback 0.112514 -0.0916514 1.25771
thorax -6.00236 0.00678768 1.97655
lowerneck -16.6373 -3.29549 -1.5281
upperneck 21.9478 -4.30555 0.42149
head 9.74779 -2.07822 -0.167275
rclavicle 1.08089e-014 5.96354e-015
rhumerus -30.3231 -20.8761 -77.6127
rradius 27.0332
rwrist 3.57359
rhand -17.7909 22.7654
rfingers 7.12502
rthumb 8.47211 -7.0447
lclavicle 1.08089e-014 5.96354e-015
lhumerus -31.346 3.83378 83.1965
lradius 24.6154
lwrist 9.57822
lhand -27.2054 19.2208
lfingers 7.12502
lthumb -0.618515 49.1996
rfemur -22.7131 -1.91151 21.2149
rtibia 71.6697
rfoot -6.05712 -5.2002
rtoes 4.17166
lfemur -6.73113 -0.655378 -24.588
ltibia 27.1197
lfoot -13.9748 1.43438
ltoes 0.0999356
145
root 1.27943 18.1289 -4.13869 -3.03638 -0.962303 0.195674
lowerback 11.018 -0.0574207 -1.2934
upperback 0.0893292 -0.166104 1.21
thorax -6.08712 -0.0248917 2.02713
lowerneck -16.6773 -3.27639 -1.57624
upperneck 22.0568 -4.31839 0.62484
head 9.80037 -2.06382 -0.0923332
rclavicle -4.05024e-015 -2.78299e-015
rhumerus -30.7884 -21.0783 -77.5178
rradius 26.9767
rwrist 3.53798
rhand -17.6467 23.2207
rfingers 7.12502
rthumb 8.61128 -6.58372
lclavicle -4.05024e-015 -2.78299e-015
lhumerus -31.0581 3.1733 83.151
lradius 25.0433
lwrist 10.0322
lhand -27.3455 19.1878
lfingers 7.12502
lthumb -0.753788 49.1662
rfemur -23.7153 -1.92351 21.1411
rtibia 70.9883
rfoot -6.94521 -5.26817
rtoes 3.08712
lfemur -6.10645 -0.507974 -24.7825
ltibia 27.274
lfoot -14.7823 1.44634
ltoes -0.728692
146
root 1.2799 18.1172 -3.97879 -3.19129 -0.839835 0.334119
lowerback 11.2859 -0.102762 -1.52164
upperback 0.117086 -0.25918 1.19916
thorax -6.20368 -0.0627909 2.16226
lowerneck -16.4587 -3.39028 -1.58187
upperneck 21.8124 -4.49704 0.712331
head 9.67747 -2.14002 -0.0783563
rclavicle -4.96962e-015 -8.34896e-015
rhumerus -31.1402 -21.4013 -77.3356
rradius 26.8275
rwrist 3.60999
rhand -17.7293 23.7743
rfingers 7.12502
rthumb 8.53158 -6.03339
lclavicle -4.96962e-015 -8.34896e-015
lhumerus -30.7458 2.59044 83.1226
lradius 25.6178
lwrist 10.2058
lhand -27.1207 20.8139
lfingers 7.12502
lthumb -0.536692 50.793
rfemur -24.561 -2.08894 21.0583
rtibia 70.1555
rfoot -8.05329 -5.41853
rtoes 2.1595
lfemur -5.30143 -0.416847 -24.9597
ltibia 27.2099
lfoot -15.2857 1.3735
ltoes -1.40349
147
root 1.28682 18.0949 -3.82134 -3.19705 -0.500223 0.451123
lowerback 11.4467 -0.220791 -1.63117
upperback 0.150487 -0.432009 1.20474
thorax -6.24968 -0.143828 2.26014
lowerneck -16.5542 -3.45783 -1.59709
upperneck 21.7297 -4.59594 0.760285
head 9.66899 -2.18139 -0.0732706
rclavicle 3.67752e-015 3.57812e-015
rhumerus -31.3269 -21.3424 -77.2447
rradius 26.7549
rwrist 3.42099
rhand -17.9222 23.7162
rfingers 7.12502
rthumb 8.34538 -6.09892
lclavicle 3.67752e-015 3.57812e-015
lhumerus -30.1454 2.07781 83.1487
lradius 26.06
lwrist 10.1715
lhand -27.0376 22.7088
lfingers 7.12502
lthumb -0.456432 52.6881
rfemur -25.5031 -2.43914 20.9753
rtibia 69.2433
rfoot -9.76654 -5.94491
rtoes -1.01656
lfemur -4.78847 -0.495557 -25.141
ltibia 26.9934
lfoot -15.2712 1.40549
ltoes -1.23117
148
root 1.29489 18.0694 -3.6595 -3.12982 -0.316299 0.468791
lowerback 11.4485 -0.354637 -1.58651
upperback 0.163863 -0.602599 1.22805
thorax -6.22798 -0.228861 2.28752
lowerneck -16.6112 -3.39087 -1.71847
upperneck 21.6906 -4.51127 0.937981
head 9.67259 -2.13145 0.0187656
rclavicle 6.26172e-015 -1.98785e-015
rhumerus -31.5112 -21.432 -77.1167
rradius 26.6459
rwrist 3.53875
rhand -18.1801 23.4372
rfingers 7.12502
rthumb 8.09652 -6.38775
lclavicle 6.26172e-015 -1.98785e-015
lhumerus -29.5323 1.70596 83.0684
lradius 26.3712
lwrist 10.0938
lhand -26.7548 23.5626
lfingers 7.12502
lthumb -0.183273 53.5422
rfemur -26.4493 -2.65167 21.0199
rtibia 68.1609
rfoot -9.72245 -5.88037
rtoes 0.623584
lfemur -4.43204 -0.589303 -25.2024
ltibia 26.7691
lfoot -15.2223 1.44165
ltoes 0.718719
149
root 1.29538 18.0535 -3.49433 -3.08641 -0.151852 0.642977
lowerback 11.3604 -0.437386 -1.7811
upperback 0.213817 -0.739453 1.19183
thorax -6.11666 -0.292742 2.37978
lowerneck -16.5212 -3.39009 -1.83232
upperneck 21.4615 -4.54006 1.20104
head 9.58538 -2.12609 0.128331
rclavicle -6.1996e-015 -9.14409e-015
rhumerus -31.6906 -21.9089 -76.9028
rradius 26.445
rwrist 4.08749
rhand -17.8813 23.5393
rfingers 7.12502
rthumb 8.38486 -6.2743
lclavicle -6.1996e-015 -9.14409e-015
lhumerus -28.8721 1.11745 82.9874
lradius 26.4597
lwrist 9.97241
lhand -26.8543 23.5745
lfingers 7.12502
lthumb -0.279386 53.5541
rfemur -27.3153 -2.86664 20.9277
rtibia 66.9382
rfoot -10.2597 -6.01785
rtoes -4.42739
lfemur -3.8298 -0.563707 -25.3778
ltibia 26.5231
lfoot -15.739 1.16342
ltoes 0.851234
150
root 1.29606 18.0435 -3.32758 -3.06537 0.111478 0.762559
lowerback 11.3171 -0.512484 -1.95464
upperback 0.289692 -0.860947 1.19526
thorax -6.00304 -0.349711 2.49944
lowerneck -16.62 -3.44916 -1.6219
upperneck 21.3219 -4.63212 1.02704
head 9.5459 -2.17174 0.0210152
rclavicle -1.14922e-014 3.97569e-015
rhumerus -31.8306 -22.1882 -76.745
rradius 26.2856
rwrist 4.33456
rhand -17.6469 23.8467
rfingers 7.12502
rthumb 8.61109 -5.95767
lclavicle -1.14922e-014 3.97569e-015
lhumerus -28.1237 0.560566 82.9804
lradius 26.4144
lwrist 10.0909
lhand -27.0479 24.2685
lfingers 7.12502
lthumb -0.466314 54.2477
rfemur -27.9978 -3.16039 20.8796
rtibia 65.4764
rfoot -10.2376 -6.83606
rtoes -9.70419
lfemur -3.05087 -0.611528 -25.5194
ltibia 26.201
lfoot -16.2845 1.04018
ltoes -0.567175
151
root 1.29953 18.0217 -3.16647 -3.14807 0.355067 1.04346
lowerback 11.5453 -0.654156 -2.30949
upperback 0.340247 -1.09973 1.19475
thorax -6.05779 -0.45633 2.74253
lowerneck -16.7715 -3.43325 -1.60042
upperneck 21.3345 -4.59916 0.966349
head 9.57581 -2.16046 -0.00202893
rclavicle -2.23633e-014 3.18055e-015
rhumerus -32.0437 -22.0702 -76.6765
rradius 26.2877
rwrist 4.60317
rhand -17.8699 23.7437
rfingers 7.12502
rthumb 8.39593 -6.06939
lclavicle -2.23633e-014 3.18055e-015
lhumerus -27.7189 0.188857 82.9181
lradius 26.7502
lwrist 10.4267
lhand -27.8305 25.1349
lfingers 7.12502
lthumb -1.2222 55.1112
rfemur -28.5647 -3.45058 20.6487
rtibia 63.8811
rfoot -10.415 -7.72037
rtoes -13.8446
lfemur -2.22589 -0.723807 -25.8936
ltibia 25.9147
lfoot -16.4431 1.19471
ltoes -0.0507419
152
root 1.2996 18.0133 -3.00499 -3.14127 0.53032 1.23286
lowerback 11.6567 -0.778879 -2.5723
upperback 0.329373 -1.3026 1.19976
thorax -6.1132 -0.547031 2.93276
lowerneck -16.604 -3.41694 -1.77291
upperneck 21.0985 -4.58889 1.22185
head 9.47309 -2.14352 0.120938
rclavicle 4.44781e-015 5.1684e-015
rhumerus -32.2889 -21.9347 -76.6143
rradius 26.2308
rwrist 4.71354
rhand -17.9598 25.4459
rfingers 7.12502
rthumb 8.30911 -4.37066
lclavicle 4.44781e-015 5.1684e-015
lhumerus -27.4724 -0.112261 82.7927
lradius 27.2241
lwrist 10.408
lhand -28.8383 24.3599
lfingers 7.12502
lthumb -2.19553 54.3283
rfemur -29.1426 -3.5942 20.5464
rtibia 62.0436
rfoot -11.1818 -7.55393
rtoes -17.9809
lfemur -1.60415 -0.800177 -26.1441
ltibia 25.6544
lfoot -16.5183 1.37634
ltoes 0.188609
